<?xml version="1.0" encoding="UTF-8" standalone="no"?>
<!DOCTYPE svg PUBLIC "-//W3C//DTD SVG 1.1//EN"
 "http://www.w3.org/Graphics/SVG/1.1/DTD/svg11.dtd">
<!-- Generated by graphviz version 14.1.3 (20260303.0454)
 -->
<!-- Title: G Pages: 1 -->
<svg width="668pt" height="127pt"
 viewBox="0.00 0.00 668.00 127.00" xmlns="http://www.w3.org/2000/svg" xmlns:xlink="http://www.w3.org/1999/xlink">
<g id="graph0" class="graph" transform="scale(1 1) rotate(0) translate(4 122.68)">
<title>G</title>
<polygon fill="white" stroke="none" points="-4,4 -4,-122.68 664,-122.68 664,4 -4,4"/>
<!-- Frontend -->
<g id="node1" class="node">
<title>Frontend</title>
<polygon fill="#61dafb" stroke="lightgrey" points="89.5,-43.68 0,-43.68 0,-4.18 89.5,-4.18 89.5,-43.68"/>
<text xml:space="preserve" text-anchor="middle" x="44.75" y="-26.38" font-family="Arial" font-size="14.00">React Client</text>
<text xml:space="preserve" text-anchor="middle" x="44.75" y="-10.63" font-family="Arial" font-size="14.00">(Port 3000)</text>
</g>
<!-- FastAPI -->
<g id="node2" class="node">
<title>FastAPI</title>
<polygon fill="#059669" stroke="lightgrey" points="402.12,-43.68 281.88,-43.68 281.88,-4.18 402.12,-4.18 402.12,-43.68"/>
<text xml:space="preserve" text-anchor="middle" x="342" y="-26.38" font-family="Arial" font-size="14.00" fill="white">FastAPI Backend</text>
<text xml:space="preserve" text-anchor="middle" x="342" y="-10.63" font-family="Arial" font-size="14.00" fill="white">(Port 5000)</text>
</g>
<!-- Frontend&#45;&gt;FastAPI -->
<g id="edge1" class="edge">
<title>Frontend&#45;&gt;FastAPI</title>
<path fill="none" stroke="black" d="M89.95,-23.93C137.59,-23.93 214.09,-23.93 270.14,-23.93"/>
<polygon fill="black" stroke="black" points="269.9,-27.43 279.9,-23.93 269.9,-20.43 269.9,-27.43"/>
<text xml:space="preserve" text-anchor="middle" x="173.5" y="-42.13" font-family="Helvetica,Arial,sans-serif" font-size="14.00"> REST API </text>
<text xml:space="preserve" text-anchor="middle" x="173.5" y="-26.38" font-family="Helvetica,Arial,sans-serif" font-size="14.00">(JSON, File Uploads) </text>
</g>
<!-- NLP -->
<g id="node3" class="node">
<title>NLP</title>
<polygon fill="#3b82f6" stroke="lightgrey" points="426.5,-118.68 257.5,-118.68 257.5,-79.18 426.5,-79.18 426.5,-118.68"/>
<text xml:space="preserve" text-anchor="middle" x="342" y="-101.38" font-family="Arial" font-size="14.00" fill="white">spaCy / ML Parsing</text>
<text xml:space="preserve" text-anchor="middle" x="342" y="-85.63" font-family="Arial" font-size="14.00" fill="white">Resume Ranking Service</text>
</g>
<!-- FastAPI&#45;&gt;NLP -->
<g id="edge2" class="edge">
<title>FastAPI&#45;&gt;NLP</title>
<path fill="none" stroke="black" d="M342,-44.03C342,-51.18 342,-59.41 342,-67.28"/>
<polygon fill="black" stroke="black" points="338.5,-67.26 342,-77.26 345.5,-67.26 338.5,-67.26"/>
<text xml:space="preserve" text-anchor="middle" x="331.12" y="-56.01" font-family="Helvetica,Arial,sans-serif" font-size="14.00"> Extract &amp; Rank </text>
</g>
<!-- Supabase -->
<g id="node4" class="node">
<title>Supabase</title>
<polygon fill="#10b981" stroke="lightgrey" points="660,-43.68 560.75,-43.68 560.75,-4.18 660,-4.18 660,-43.68"/>
<text xml:space="preserve" text-anchor="middle" x="610.38" y="-26.38" font-family="Arial" font-size="14.00" fill="white">Supabase</text>
<text xml:space="preserve" text-anchor="middle" x="610.38" y="-10.63" font-family="Arial" font-size="14.00" fill="white">(PostgreSQL)</text>
</g>
<!-- FastAPI&#45;&gt;Supabase -->
<g id="edge4" class="edge">
<title>FastAPI&#45;&gt;Supabase</title>
<path fill="none" stroke="black" d="M402.45,-23.93C446.08,-23.93 505.14,-23.93 548.99,-23.93"/>
<polygon fill="black" stroke="black" points="548.85,-27.43 558.85,-23.93 548.85,-20.43 548.85,-27.43"/>
<text xml:space="preserve" text-anchor="middle" x="493.62" y="-26.38" font-family="Helvetica,Arial,sans-serif" font-size="14.00"> Save / Sync </text>
</g>
<!-- NLP&#45;&gt;FastAPI -->
<g id="edge3" class="edge">
<title>NLP&#45;&gt;FastAPI</title>
<path fill="none" stroke="black" d="M363.13,-78.7C364.45,-72.09 364.88,-63.34 364.44,-55.3"/>
<polygon fill="black" stroke="black" points="367.94,-55.05 363.28,-45.53 360.99,-55.87 367.94,-55.05"/>
<text xml:space="preserve" text-anchor="middle" x="352.88" y="-56.01" font-family="Helvetica,Arial,sans-serif" font-size="14.00"> Scores </text>
</g>
<!-- Supabase&#45;&gt;FastAPI -->
<g id="edge5" class="edge">
<title>Supabase&#45;&gt;FastAPI</title>
<path fill="none" stroke="black" d="M560.61,-7.74C554.65,-6.28 548.6,-5.03 542.75,-4.18 499.54,2.09 487.97,0.01 444.5,-4.18 434.46,-5.15 423.94,-6.64 413.63,-8.39"/>
<polygon fill="black" stroke="black" points="413.28,-4.89 404.05,-10.1 414.51,-11.79 413.28,-4.89"/>
<text xml:space="preserve" text-anchor="middle" x="493.62" y="-6.63" font-family="Helvetica,Arial,sans-serif" font-size="14.00"> Company Data </text>
</g>
</g>
</svg>
